<?xml version="1.0" encoding="UTF-8"?><svg id="Layer_2" xmlns="http://www.w3.org/2000/svg" viewBox="0 0 976.09 278.61"><g id="Layer_1-2"><g><path d="M92.81,29.44c-.2,.6,.2,13.18,.2,13.18h12.39l-1.2-27.97L19.69,21.25s-4.2,115.87-3.6,115.47,82.31-1.4,82.31-1.4l2.4-21.58-9.7,.04-.49,7.56-59.73,1,1-87.1,60.93-5.79Z"/><path d="M193.29,135.72L150.94,15.45h-12.59l-27.57,123.86h14.78l7.62-39.29c7.35-.11,25.39,.02,34.25,.09l12.07,36.61,13.78-1Zm-57.46-49.34l10.03-51.72,17.05,51.72h-27.08Z"/><path d="M213.67,129.72h-10.39l-5.99-117.87,13.47-4.16,52.04,93.15,2.81-92.38s15.18-.6,14.98,0c-.2,.6-6.79,109.67-6.79,109.67l-19.78,2s-44.55-87.5-44.55-86.7,4.2,96.29,4.2,96.29Z"/><path d="M337.73,127.13l18.38-1.4-20.38-88.5-4.39-31.76h-11.79c1,0-19.38,60.93-19.38,60.93l-18.38,54.14s13.18-1.2,13.58-.6c.36,.54,5.88-23.11,6.99-27.91,7.77-.49,22.92-1.39,29.89-2.08l5.47,37.18Zm-30.19-50.24l.42-1.21,15.18-47.65,6.84,46.51c-5.85,.57-16.4,1.7-22.45,2.34Z"/><path d="M382.28,6.86l-8.79,111.87,74.32-1.4,1-9.39s1.12-6.59,1.46-6.59-60.59,.58-60.59,.58l6-96.47-13.38,1.4Z"/><path d="M549.28,3.07c-.6,.2-53.34,.6-53.34,1.2s-3.2,60.73-3.2,60.73l51.94,1.3-1.4,36.86-59.53,.8,1,16.98,69.72-1,4.99-64.53-52.34-4.99,2-32.56,41.95,.4-1.8-15.18Z"/><path d="M630.59,.07l-64.93,1.4V13.86l24.93-.77c-1.04,20.87-5.08,102.43-4.55,102.25,.6-.2,14.98-1.4,14.98-1.4l3.64-101.29,25.93-.8V.07Z"/><path d="M709.7,118.74l-45.55-54.54h32.16l6.59-61.13h-60.53s-6.79,82.11-6.59,82.91c.2,.8,0,29.37,0,29.37h14.59v-44.35l.12-1.13,42.43,48.87h16.78Zm-20.78-103.68l-4.2,35.16-32.27,1.06,2.71-34.83,33.76-1.4Z"/><path d="M778.42,.07l-60.93,2.2V119.74l52.54-2.4-.6-14.38s-38.56,3.8-38.56,3.2-.62-38.08-.62-38.08l27.79-1.08-.6-11.99-26.17,1-.2-40.95s49.14-1.4,48.74-2c-.4-.6-1.4-12.99-1.4-12.99Z"/><path d="M860.73,.07c-1-.4-61.73,1-61.73,1,0,0-9.59,124.26-8.19,123.86,1.4-.4,60.13-1.4,59.93-2.2s-.4-14.58-.4-14.58l-41.55,2.4,1-39.16,42.14-2.92,.41-13.66-39.95,.6,.39-39.79,46.96-2.56,1-12.99Z"/><polygon points="959.42 2.07 873.91 2.07 873.91 16.05 906.97 17.01 892.89 131.32 906.48 132.12 926.81 17.58 957.02 18.45 959.42 2.07"/><path d="M82.51,175.33l-73.12,3L0,270.02s15.18,.4,15.18,0,3.6-41.93,3.6-41.93l43.35,.97,1.27-16.33-44.68-.49,1.35-23.58,62.43-.36v-12.99Z"/><path d="M111.07,175.33c-.6-.4-13.91,0-13.91,0l-1.27,94.87h16.38l-1.2-94.87Z"/><path d="M129.45,175.15l5.99,72.69s-.8,17.58,0,17.58,38.36,1.6,38.36,1.6v-13.58l-24.35-1.23-7.61-77.88-12.39,.82Z"/><path d="M179.99,268.22l24.57-95.09,14.98-.8,24.57,60.13s54.74-65.92,54.74-65.33,8.39,60.73,8.39,60.73l3.4,37.56s-12.79,3.4-12.79,1.6-7.33-67.19-7.33-67.19l-50,64.59-6.79,.2-23.17-69.92-16.78,73.52h-13.78Z"/><polygon points="446.09 169.74 385.36 168.74 387.16 218.48 392.55 274.42 407.34 274.42 402.14 217.68 440.3 216.28 439.7 204.3 401.93 205.07 400.94 183.92 446.09 181.32 446.09 169.74"/><path d="M528,164.34c-.8,.2-62.13,4.39-62.13,4.39l-4,55.14v48.15l50.74-2.2,1-15.78-37.34,2.13,.58-26.11,34.15-3.08v-16.99l-32.35,1.49,.4-31.76,48.15-4.99,.8-10.39Z"/><polygon points="608.51 167.14 548.17 167.14 540.98 212.89 581.74 212.89 574.74 252.64 535.59 254.64 533.99 269.62 590.13 269.62 599.52 200.5 556.58 199.33 558.96 178.73 606.91 177.13 608.51 167.14"/><path d="M676.63,168.74l-50.94,1s-1.4,11.59-.8,11.59c.21,0,6.72-.35,15.05-.8-1.21,8.7-3.66,28.57-3.66,28.57l-4.99,59.33h18.58s5.39-66.12,5.39-66.99c0-.68,2.07-15.45,2.97-21.9,10.02-.55,18.4-1,18.4-1v-9.79Z"/><polygon points="699.6 168.74 683.62 168.74 682.42 232.47 680.02 269.62 695.01 269.62 699.6 168.74"/><path d="M729.57,167.14c-.8,.2-12.19,0-12.19,0l23.77,75.91,2.8,26.57h14.58l38.56-104.08s-12.79-.2-13.38,0-28.35,73.37-28.35,73.37l-25.79-71.77Z"/><path d="M853.63,278.61h17.38l-20.38-111.07-6.99-2.09-54.74,104.17h17.58l8.59-12.99,11.19-24.57,.34-.8h22.07l4.96,47.35Zm-21.17-61.07l11.87-27.83,2.91,27.83h-14.78Z"/><polygon points="923.55 170.46 905.57 170.54 895.58 241.65 890.38 276.02 976.09 276.02 976.09 257.04 910.2 255.75 923.55 170.46"/></g></g></svg>